#!OML:ASF X:\für Bonn\!DataBase\2005_08_11_Bastian_Final\c3d\Bastian.ASF
:FULLY-SPECIFIED
:DEGREES
62
root -17.7715 17.2746 0.181898 151.773 -66.1894 -159.404
lowerback 4.73301 6.21319 10.2062
upperback 3.87697 8.41324 2.15409
thorax 2.57154 4.36024 -3.50717
lowerneck -11.2809 -4.64161 -3.48069
upperneck -8.13676 -5.98776 5.24854
head -0.396145 -3.0449 2.05278
rclavicle 8.06942e-015 1.0138e-014
rhumerus 47.032 10.7418 -52.7928
rradius 49.6976
rwrist -1.93525
rhand -18.5746 9.31391
rfingers 7.12502
rthumb 7.71572 -20.5253
lclavicle 8.06942e-015 1.0138e-014
lhumerus -31.2135 -2.97202 84.2666
lradius 13.4454
lwrist 7.47955
lhand -8.3475 -7.13271
lfingers 7.12502
lthumb 17.5744 22.093
rfemur 19.198 4.4173 26.9961
rtibia 22.162
rfoot -15.0872 2.02758
rtoes -23.5134
lfemur -13.2782 -3.45131 -4.1186
ltibia 21.5359
lfoot 2.49361 -2.07982
ltoes -35.2952
63
root -17.9029 17.2828 0.19852 151.85 -66.3491 -159.404
lowerback 4.55531 6.28851 10.0896
upperback 3.82773 8.50213 2.01501
thorax 2.63374 4.40908 -3.56742
lowerneck -11.277 -4.76638 -3.31936
upperneck -8.27112 -6.173 5.23624
head -0.437721 -3.14478 2.01566
rclavicle -1.62258e-014 8.74653e-015
rhumerus 48.4808 10.2201 -52.0909
rradius 48.1741
rwrist -1.88863
rhand -18.5782 9.26032
rfingers 7.12502
rthumb 7.71231 -20.579
lclavicle -1.62258e-014 8.74653e-015
lhumerus -30.5226 -3.3124 84.1618
lradius 13.5797
lwrist 7.95912
lhand -8.5802 -7.09537
lfingers 7.12502
lthumb 17.3505 22.1502
rfemur 19.2077 4.299 26.805
rtibia 22.6728
rfoot -14.6067 1.61521
rtoes -24.0919
lfemur -13.3794 -2.78614 -4.50363
ltibia 22.201
lfoot 2.58315 -2.8716
ltoes -35.4274
64
root -18.0329 17.2951 0.21393 151.968 -66.5481 -159.446
lowerback 4.38158 6.3541 9.94138
upperback 3.78434 8.57868 1.84842
thorax 2.69766 4.45198 -3.63913
lowerneck -11.3186 -4.89587 -3.1421
upperneck -8.40255 -6.36587 5.24424
head -0.470759 -3.24902 1.98117
rclavicle 4.36643e-014 -3.18055e-015
rhumerus 49.9097 9.67648 -51.4118
rradius 46.6253
rwrist -1.8121
rhand -18.5428 9.17438
rfingers 7.12502
rthumb 7.74645 -20.6637
lclavicle 4.36643e-014 -3.18055e-015
lhumerus -29.8292 -3.60552 84.0058
lradius 13.8004
lwrist 8.37824
lhand -8.7774 -7.03533
lfingers 7.12502
lthumb 17.1607 22.2269
rfemur 19.1853 4.13218 26.5753
rtibia 23.194
rfoot -14.0606 1.1962
rtoes -24.6134
lfemur -13.4587 -2.2573 -4.90595
ltibia 22.8245
lfoot 2.60246 -3.48238
ltoes -35.2117
65
root -18.1593 17.3098 0.229317 151.975 -66.7524 -159.367
lowerback 4.23425 6.41654 9.81127
upperback 3.73203 8.65425 1.71348
thorax 2.73536 4.49227 -3.6918
lowerneck -11.3096 -5.0269 -3.0075
upperneck -8.57027 -6.55608 5.2667
head -0.521982 -3.35182 1.96117
rclavicle -3.30604e-014 3.97569e-015
rhumerus 51.2974 9.1644 -50.6104
rradius 45.0402
rwrist -1.78072
rhand -18.5084 9.05505
rfingers 7.12502
rthumb 7.77961 -20.7818
lclavicle -3.30604e-014 3.97569e-015
lhumerus -29.1955 -4.09147 83.9674
lradius 14.1414
lwrist 9.00189
lhand -8.91764 -6.95227
lfingers 7.12502
lthumb 17.0257 22.3216
rfemur 19.1391 3.8852 26.3737
rtibia 23.7057
rfoot -13.4495 0.741771
rtoes -25.0358
lfemur -13.5161 -1.79785 -5.25373
ltibia 23.386
lfoot 2.55796 -4.03278
ltoes -35.1585
66
root -18.2821 17.3273 0.243709 151.945 -66.9746 -159.273
lowerback 4.13034 6.48131 9.69299
upperback 3.70219 8.73626 1.56496
thorax 2.77777 4.53681 -3.76766
lowerneck -11.366 -5.17947 -2.90529
upperneck -8.71977 -6.77035 5.32394
head -0.553567 -3.46536 1.9552
rclavicle -2.43511e-015 8.34896e-015
rhumerus 52.6513 8.60948 -49.7508
rradius 43.4484
rwrist -1.75981
rhand -18.4564 8.88946
rfingers 7.12502
rthumb 7.82983 -20.9455
lclavicle -2.43511e-015 8.34896e-015
lhumerus -28.4979 -4.71608 83.9703
lradius 14.4698
lwrist 9.72274
lhand -9.05933 -6.87557
lfingers 7.12502
lthumb 16.8893 22.41
rfemur 19.0881 3.5706 26.1593
rtibia 24.2116
rfoot -12.7875 0.292883
rtoes -25.5013
lfemur -13.5061 -1.45974 -5.59398
ltibia 23.8492
lfoot 2.46444 -4.48976
ltoes -34.8906
